<mxfile host="app.diagrams.net" modified="2024-01-22T11:52:14.536Z" agent="Mozilla/5.0 (Windows NT 10.0; Win64; x64) AppleWebKit/537.36 (KHTML, like Gecko) Chrome/120.0.0.0 Safari/537.36" version="22.1.21" etag="l1iFbPOwDqcN9o5WdI4a" type="github">
  <diagram name="第 1 页" id="yktbvaJ2zeaF2JyP_n_4">
    <mxGraphModel>
      <root>
        <mxCell id="0" />
        <mxCell id="1" parent="0" />
      </root>
    </mxGraphModel>
  </diagram>
</mxfile>
